<svg xmlns="http://www.w3.org/2000/svg" width="30" height="30" fill="none" viewBox="0 0 30 30">
    <path fill="#4B4B4B" fill-rule="evenodd" d="M0 6V4c0-2.21 1.79-4 4-4h22c2.21 0 4 1.79 4 4v22c0 2.21-1.79 4-4 4H4c-2.21 0-4-1.79-4-4V6zm6.42-1.714c-1.66 0-2.747 1.11-2.747 2.57 0 1.426 1.054 2.569 2.684 2.569h.031c1.694 0 2.748-1.142 2.748-2.57-.032-1.459-1.054-2.57-2.715-2.57zm-2.46 7.169h4.856v14.871H3.96V11.455zm12.4 2.157s1.756-2.506 4.375-2.506c3.195 0 5.591 2.126 5.591 6.693v8.528h-4.855V18.37c0-2-.703-3.363-2.46-3.363-1.342 0-2.14.92-2.492 1.807-.128.318-.16.762-.16 1.207v8.305h-4.856V11.454h4.856v2.157z" clip-rule="evenodd"/>
</svg>
