<svg xmlns="http://www.w3.org/2000/svg" width="30" height="30" fill="none" viewBox="0 0 30 30">
    <path fill="#4B4B4B" d="M25.958 0H4.043C1.81 0 0 1.81 0 4.042v21.915C0 28.19 1.81 30 4.042 30H14.85l.019-10.72h-2.785c-.362 0-.656-.293-.657-.655l-.013-3.456c-.002-.364.293-.66.657-.66h2.78V11.17c0-3.875 2.367-5.985 5.823-5.985h2.837c.363 0 .657.294.657.657v2.914c0 .362-.294.657-.657.657l-1.74.001c-1.88 0-2.245.893-2.245 2.205v2.89h4.131c.393 0 .699.344.652.735L23.9 18.7c-.038.33-.32.58-.652.58h-3.702L19.527 30h6.43C28.19 30 30 28.19 30 25.958V4.042C30 1.81 28.19 0 25.958 0z"/>
</svg>
