<svg width="30" height="30" viewBox="0 0 30 30" fill="none" xmlns="http://www.w3.org/2000/svg">
<g clip-path="url(#clip0)">
<path fill-rule="evenodd" clip-rule="evenodd" d="M30 8.61628C30.0003 8.59531 30.0005 8.5743 30.0005 8.55326V4C30.0005 1.79086 28.2096 0 26.0005 0H24.376H21.4472H8.55326H5.62539H4C1.79086 0 0 1.79086 0 4V5.62457V8.55326V21V24.3747V26C0 28.2091 1.79086 30 4 30H5.62539H9H21.4467H24.3753H26C28.2091 30 30 28.2091 30 26L30 24.3747L30 21.4467L30 8.61628ZM8.45727 24.8095C8.76059 24.6838 9.03616 24.4996 9.26824 24.2673C9.61783 23.9176 9.85588 23.4721 9.95229 22.9871C10.0487 22.5021 9.99912 21.9994 9.80984 21.5426C9.62056 21.0858 9.30007 20.6953 8.88889 20.4206C8.47772 20.1459 7.99433 19.9993 7.49983 19.9993C7.00545 19.9996 6.52224 20.1464 6.11128 20.4212C5.70031 20.696 5.38004 21.0865 5.19093 21.5432C5.00182 22 4.95236 22.5026 5.04881 22.9874C5.14525 23.4723 5.38327 23.9177 5.73279 24.2673C5.96487 24.4996 6.24044 24.6838 6.54376 24.8095C6.84707 24.9352 7.17218 24.9999 7.50051 24.9999C7.82884 24.9999 8.15396 24.9352 8.45727 24.8095ZM16.4753 24.9478C16.5526 24.9142 16.6222 24.8652 16.6798 24.8037C16.7424 24.7439 16.7907 24.6708 16.8211 24.5898C16.8516 24.5088 16.8634 24.4219 16.8556 24.3357C16.686 21.3153 15.5335 18.7372 13.3982 16.6014C11.2629 14.4657 8.68493 13.3133 5.66438 13.1441C5.57798 13.1363 5.49095 13.1481 5.40971 13.1785C5.32848 13.209 5.25513 13.2573 5.19508 13.3199C5.13356 13.3775 5.08451 13.4471 5.05097 13.5244C5.01743 13.6017 5.00012 13.6851 5.00011 13.7693V16.2724C4.99819 16.3514 5.01188 16.4301 5.04041 16.5038C5.06894 16.5775 5.11173 16.6449 5.16635 16.702C5.27579 16.8186 5.42602 16.8885 5.58571 16.897C7.59104 17.0388 9.30997 17.8253 10.7425 19.2564C12.175 20.6875 12.9626 22.4064 13.1054 24.4131C13.1139 24.5731 13.184 24.7236 13.301 24.8331C13.3582 24.8876 13.4256 24.9302 13.4993 24.9587C13.5731 24.9871 13.6517 25.0006 13.7306 24.9986H16.2304C16.3146 24.9986 16.398 24.9813 16.4753 24.9478ZM23.9755 24.948C24.0527 24.9144 24.1222 24.8652 24.1796 24.8037C24.2477 24.7522 24.3 24.6829 24.3308 24.6034C24.3616 24.5239 24.3697 24.4374 24.3541 24.3535C24.2927 22.3721 23.9235 20.4122 23.2595 18.5443C22.6211 16.7215 21.704 15.0088 20.5409 13.467C19.3948 11.9564 18.0479 10.6093 16.5375 9.46299C14.9957 8.29767 13.2824 7.37872 11.4587 6.73895C9.59065 6.07455 7.63044 5.70527 5.64864 5.64441C5.56511 5.63538 5.48063 5.64664 5.40238 5.67725C5.32413 5.70786 5.25442 5.75691 5.19919 5.82022C5.137 5.87737 5.08723 5.9467 5.05299 6.0239C5.01874 6.1011 5.00074 6.18453 5.00011 6.26898V8.76933C4.99859 8.84914 5.0134 8.92842 5.04363 9.00229C5.07387 9.07617 5.11889 9.14309 5.17593 9.19893C5.29016 9.31482 5.44314 9.38448 5.60555 9.39458C8.21314 9.4713 10.7565 10.2214 12.9884 11.572C15.226 12.9043 17.0958 14.7738 18.4284 17.0112C19.7788 19.2431 20.5289 21.7864 20.6059 24.3939C20.6156 24.5563 20.6851 24.7093 20.8009 24.8235C20.8567 24.8805 20.9236 24.9256 20.9975 24.9558C21.0714 24.986 21.1507 25.0008 21.2305 24.9993H23.7309C23.8151 24.9991 23.8984 24.9817 23.9755 24.948Z" fill="#4B4B4B"/>
</g>
<defs>
<clipPath id="clip0">
<rect width="30" height="30" fill="white"/>
</clipPath>
</defs>
</svg>
