<?xml version="1.0" encoding="iso-8859-1"?>
<!-- Generator: Adobe Illustrator 19.0.0, SVG Export Plug-In . SVG Version: 6.00 Build 0)  -->
<svg version="1.1" id="Layer_1" xmlns="http://www.w3.org/2000/svg" xmlns:xlink="http://www.w3.org/1999/xlink" x="0px" y="0px"
	 viewBox="0 0 486.94 486.94" style="enable-background:new 0 0 486.94 486.94;" xml:space="preserve">
<g>
	<g>
		<path d="M243.47,103.736c-76.8,0-139.733,62.933-139.733,139.733s61.867,139.733,139.733,139.733
			c76.8,0,139.733-62.933,139.733-139.733S320.27,103.736,243.47,103.736z M243.47,340.537c-53.333,0-97.067-43.733-97.067-97.067
			c0-53.333,43.733-97.067,97.067-97.067s97.067,43.733,97.067,97.067C340.537,296.803,296.803,340.537,243.47,340.537z"/>
	</g>
</g>
<g>
	<g>
		<path d="M329.87,1.336c-10.667-4.267-23.467,2.133-27.733,12.8l-12.8,37.333c-3.2,11.733,2.133,24.533,12.8,27.733
			c10.667,4.267,23.467-2.133,27.733-12.8l12.8-37.333C346.937,18.403,340.537,5.603,329.87,1.336z"/>
	</g>
</g>
<g>
	<g>
		<path d="M184.803,407.736c-10.667-4.267-23.467,2.133-27.733,12.8l-12.8,37.333c-4.267,10.667,2.133,23.467,12.8,27.733
			s23.467-2.133,27.733-12.8l12.8-37.333C200.803,423.736,195.47,410.937,184.803,407.736z"/>
	</g>
</g>
<g>
	<g>
		<path d="M471.737,303.203l-37.333-12.8c-10.667-4.267-23.467,2.133-27.733,12.8c-4.267,10.667,2.133,23.467,12.8,27.733
			l37.333,12.8c10.667,4.267,23.467-2.133,27.733-12.8C488.803,319.203,482.403,306.403,471.737,303.203z"/>
	</g>
</g>
<g>
	<g>
		<path d="M67.47,157.07l-37.333-12.8c-10.667-4.267-23.467,2.133-27.733,12.8s2.133,23.467,12.8,27.733l37.333,12.8
			c10.667,4.267,23.467-2.133,27.733-12.8S78.137,161.336,67.47,157.07z"/>
	</g>
</g>
<g>
	<g>
		<path d="M474.936,133.603c-4.267-10.667-18.133-14.933-28.8-10.667l-35.2,17.067c-10.667,5.333-14.933,18.133-10.667,28.8
			c5.334,10.667,18.133,16,28.8,10.667l35.2-17.067C474.936,157.07,479.203,144.27,474.936,133.603z"/>
	</g>
</g>
<g>
	<g>
		<path d="M86.67,318.137c-5.334-10.667-18.133-16-28.8-10.667l-35.2,17.067c-10.667,5.333-14.933,18.133-10.667,28.8
			c4.267,10.667,18.133,14.933,28.8,10.667l35.2-17.067C86.67,341.603,90.937,328.803,86.67,318.137z"/>
	</g>
</g>
<g>
	<g>
		<path d="M362.937,446.137l-17.067-35.2c-5.333-10.667-18.133-14.933-28.8-10.667c-10.667,5.333-14.933,18.133-10.667,28.8
			l17.067,35.2c5.333,10.667,18.133,14.933,28.8,10.667S367.203,456.803,362.937,446.137z"/>
	</g>
</g>
<g>
	<g>
		<path d="M180.537,57.87l-17.067-35.2c-5.333-10.667-18.133-14.933-28.8-10.667c-10.667,5.333-14.933,18.133-10.667,28.8
			l17.067,35.2c5.333,10.667,18.133,14.933,28.8,10.667C180.537,81.336,184.803,68.536,180.537,57.87z"/>
	</g>
</g>
<g>
</g>
<g>
</g>
<g>
</g>
<g>
</g>
<g>
</g>
<g>
</g>
<g>
</g>
<g>
</g>
<g>
</g>
<g>
</g>
<g>
</g>
<g>
</g>
<g>
</g>
<g>
</g>
<g>
</g>
</svg>
